<svg xmlns="http://www.w3.org/2000/svg" width="8" height="4" viewBox="0 0 8 4" fill="none">
<path d="M4.00002 4.00002C3.88319 4.00024 3.76997 3.95956 3.68002 3.88502L0.680016 1.38502C0.577907 1.30015 0.513695 1.17819 0.501505 1.04598C0.489316 0.913765 0.530146 0.782124 0.615016 0.680016C0.699885 0.577907 0.821841 0.513695 0.954054 0.501505C1.08627 0.489316 1.21791 0.530146 1.32002 0.615016L4.00002 2.85502L6.68002 0.695016C6.73116 0.653483 6.79001 0.622467 6.85318 0.603751C6.91635 0.585035 6.98259 0.578988 7.04811 0.585958C7.11362 0.592928 7.17711 0.612776 7.23493 0.644363C7.29275 0.67595 7.34376 0.718652 7.38502 0.770016C7.43081 0.821426 7.46549 0.88174 7.48688 0.947176C7.50828 1.01261 7.51593 1.08176 7.50936 1.1503C7.50279 1.21883 7.48213 1.28526 7.44869 1.34544C7.41525 1.40562 7.36974 1.45824 7.31502 1.50002L4.31502 3.91502C4.22247 3.97777 4.11157 4.0077 4.00002 4.00002Z" fill="#2E3E76" style="fill:#2E3E76;fill:color(display-p3 0.1811 0.2430 0.4625);fill-opacity:1;"/>
</svg>